# xmcd
#
# Track frame offsets:
#	150
#	21443
#	49106
#	67295
#	84879
#	102093
#	120686
#	148778
#	164754
#	184535
#	205699
#	227056
#	241711
#
# Disc length: 3467 seconds
#
# Revision: 0
# Processed by: cddbd v1.5.2PL0 Copyright (c) Steve Scherf et al.
# Submitted via: EasyCDDAExtractor 12.0.1.1
#
DISCID=b00d890d
DTITLE=Atoll - World Groove
DYEAR=1900
DGENRE=Native American
TTITLE0=Dream Marquee
TTITLE1=Goodbye
TTITLE2=River Under The Snow
TTITLE3=You Were There With Me
TTITLE4=Unity
TTITLE5=\n\nLacrosse
TTITLE6=1000 Souls
TTITLE7=Black Whistle
TTITLE8=Who's It For?
TTITLE9=\nBeautiful People
TTITLE10=Black Whistle
TTITLE11=Brother Dread
TTITLE12=\nThings To Do
EXTD=
EXTT0=
EXTT1=
EXTT2=
EXTT3=
EXTT4=
EXTT5=
EXTT6=
EXTT7=
EXTT8=
EXTT9=
EXTT10=
EXTT11=
EXTT12=
PLAYORDER=
